HIERARCHY
ROOT Hips
{
	OFFSET 0.000000 0.000000 0.000000 
	CHANNELS 6 Xposition Yposition Zposition Yrotation Zrotation Xrotation 
	JOINT Lumbar
	{
		OFFSET 0.000000 0.000000 0.000000 
		CHANNELS 3 Zrotation Xrotation Yrotation
		JOINT Neck
		{
			OFFSET 0.000000 0.445665 0.000000 
			CHANNELS 3 Zrotation Xrotation Yrotation
			End Site
			{
				OFFSET 0.000000 0.227535 0.000000 
			}
		}
		JOINT RightShoulder
		{
			OFFSET 0.019635 0.377685 0.194865 
			CHANNELS 3 Zrotation Xrotation Yrotation
			JOINT RightElbow
			{
				OFFSET 0.000000 -0.243375 0.000000 
				CHANNELS 2 Zrotation Yrotation
				JOINT RightWrist
				{
					OFFSET 0.000000 -0.264825 0.000000 
					CHANNELS 2 Zrotation Xrotation
					End Site
					{
						OFFSET 0.006600 -0.176220 0.000990 
					}
				}
			}
		}
		JOINT LeftShoulder
		{
			OFFSET 0.019635 0.377685 -0.194865 
			CHANNELS 3 Zrotation Xrotation Yrotation
			JOINT LeftElbow
			{
				OFFSET 0.000000 -0.243375 0.000000 
				CHANNELS 2 Zrotation Yrotation
				JOINT LeftWrist
				{
					OFFSET 0.000000 -0.264825 0.000000 
					CHANNELS 2 Zrotation Xrotation
					End Site
					{
						OFFSET 0.006600 -0.176220 -0.000990 
					}
				}
			}
		}
	}
	JOINT RightHip
	{
		OFFSET 0.052140 -0.069960 0.075570 
		CHANNELS 3 Zrotation Xrotation Yrotation
		JOINT RightKnee
		{
			OFFSET 0.000000 -0.402270 0.000000 
			CHANNELS 1 Zrotation
			JOINT RightAnkle
			{
				OFFSET 0.000000 -0.404085 0.000000 
				CHANNELS 3 Zrotation Xrotation Yrotation
				End Site
				{
					OFFSET 0.204105 -0.089430 0.008415 
				}
			}
		}
	}
	JOINT LeftHip
	{
		OFFSET 0.052140 -0.069960 -0.075570 
		CHANNELS 3 Zrotation Xrotation Yrotation
		JOINT LeftKnee
		{
			OFFSET 0.000000 -0.402270 0.000000 
			CHANNELS 1 Zrotation
			JOINT LeftAnkle
			{
				OFFSET 0.000000 -0.404085 0.000000 
				CHANNELS 3 Zrotation Xrotation Yrotation
				End Site
				{
					OFFSET 0.204105 -0.089430 -0.008415 
				}
			}
		}
	}
}
MOTION
Frames: 25
Frame Time: 0.02
-0.56202 -0.004 -0.4082 957.34164 -39.99213 -5.38675 45.54841 -0.0176 -7.72295 -11.56135 -5.26549 -0.83079 6.63305 -53.11292 0.35962 98.34576 104.03878 24.6155 -0.48593 56.31332 9.45928 -32.22006 91.15708 -85.15261 15.70512 2.90096 58.95773 0.57343 -10.10742 -33.12026 -8.29549 -4.81804 -3.2804 50.60875 6.32515 -0.6657 -25.42336 -8.7113 4.87981 3.33191
-0.56291 -0.00406 -0.40616 957.36546 -40.1316 -5.26225 45.74958 -0.16154 -8.02522 -11.33976 -5.18877 -0.83079 5.17813 -52.49625 0.64487 98.49276 100.1655 22.31383 -1.19246 55.99629 9.50768 -32.45651 91.15884 -84.80272 13.7862 2.84601 58.67139 1.19241 -10.9525 -32.0077 -8.14946 -4.65068 -3.18348 50.56818 6.36902 0.09965 -25.41747 -8.658 4.8353 3.29933
-0.56454 -0.00405 -0.40366 957.41054 -40.3264 -5.13619 46.04464 -0.33078 -8.29543 -10.97995 -5.03728 -0.83079 4.09316 -51.73178 1.929 97.93615 94.62514 18.17557 -1.92464 55.67374 9.53818 -32.86462 91.16646 -84.74365 11.13589 2.67926 58.21338 1.9307 -11.57414 -30.48136 -8.04354 -4.47229 -3.08493 50.52325 6.46265 1.01097 -25.38592 -8.59376 4.77886 3.25897
-0.56584 -0.0041 -0.40133 957.44004 -40.48891 -5.01136 46.29431 -0.48392 -8.57571 -10.67774 -4.92348 -0.83079 2.92331 -51.024 2.79151 97.71732 89.98469 14.93053 -2.59038 55.34911 9.58038 -33.17459 91.17301 -84.58658 8.93857 2.56294 57.82596 2.60595 -12.2864 -29.15483 -7.9208 -4.29836 -2.98658 50.47465 6.52461 1.82417 -25.371 -8.53707 4.73043 3.22409
-0.56711 -0.00405 -0.39916 957.49119 -40.68297 -4.88503 46.5571 -0.65815 -8.8755 -10.39257 -4.79361 -0.83079 1.41649 -50.34917 3.51767 97.40896 84.69673 11.41812 -3.48556 55.04168 9.60672 -33.56679 91.16934 -84.28692 6.25002 2.44872 57.46849 3.32134 -13.05593 -27.77101 -7.78894 -4.12385 -2.8886 50.45052 6.62687 2.77924 -25.33401 -8.46944 4.67085 3.18092
-0.56862 -0.00418 -0.39655 957.50387 -40.82448 -4.76013 46.81396 -0.79319 -9.12498 -10.04102 -4.67951 -0.83079 0.69463 -49.57079 4.75799 97.13066 80.38203 8.04416 -3.91705 54.69789 9.66042 -33.83107 91.18882 -84.34344 4.39186 2.30432 57.01005 3.97807 -13.64689 -26.4147 -7.68666 -3.94962 -2.7905 50.37462 6.6566 3.47421 -25.33791 -8.42178 4.63141 3.15298
-0.57061 -0.0048 -0.39285 957.40205 -40.80027 -4.653 47.03445 -0.82173 -9.26643 -9.53922 -4.62862 -0.83079 2.04273 -48.59334 7.26416 97.03628 79.12729 5.36693 -2.96908 54.25628 9.81547 -33.68204 91.28143 -85.42681 5.15654 2.09152 56.29426 4.47196 -13.82378 -25.19235 -7.65842 -3.77182 -2.68848 50.15262 6.46951 3.3684 -25.4565 -8.43506 4.65447 3.17179
-0.57282 -0.00559 -0.38871 957.26225 -40.72217 -4.54523 47.24473 -0.80841 -9.35431 -8.97589 -4.59598 -0.83079 4.16848 -47.50934 10.23978 97.00862 78.91907 2.91098 -1.56929 53.77872 9.99498 -33.40249 91.39565 -86.83837 6.7535 1.85378 55.48655 4.89754 -13.8233 -24.02071 -7.65866 -3.59628 -2.58734 49.88035 6.20846 3.00202 -25.61983 -8.46839 4.69749 3.20571
-0.57492 -0.0063 -0.38476 957.14167 -40.67325 -4.42867 47.45786 -0.80886 -9.45179 -8.44245 -4.5542 -0.83079 5.93894 -46.44346 12.93938 97.00082 78.26549 0.45344 -0.4371 53.31666 10.14978 -33.19388 91.49385 -88.02601 7.86976 1.63604 54.73432 5.33554 -13.88617 -22.85455 -7.6449 -3.42469 -2.48865 49.6324 5.98342 2.78496 -25.76347 -8.49041 4.72889 3.23093
-0.57708 -0.00704 -0.38082 957.01153 -40.60703 -4.34919 47.68291 -0.83214 -9.61026 -7.8975 -4.51348 -0.83079 7.72506 -45.50106 15.92899 96.76518 77.43902 -2.45386 0.95423 52.8564 10.36171 -32.93959 91.61894 -89.53978 9.39274 1.38 53.91822 5.85561 -14.01236 -21.55282 -7.63686 -3.23183 -2.37791 49.37382 5.74885 2.44607 -25.8962 -8.52088 4.7708 3.26367
-0.57915 -0.00775 -0.37677 956.89448 -40.56267 -4.19384 47.87815 -0.79792 -9.62953 -7.36181 -4.47573 -0.83079 9.66522 -44.27693 18.42471 97.01823 77.22584 -4.3884 1.91688 52.38584 10.46018 -32.75043 91.69235 -90.44785 10.27625 1.19656 53.21559 6.18789 -13.9698 -20.55171 -7.62326 -3.08378 -2.29241 49.13087 5.51739 2.29297 -26.07176 -8.53921 4.79551 3.28437
-0.58088 -0.00832 -0.3725 956.80084 -40.59651 -3.816 48.00427 -0.61221 -9.27641 -6.88504 -4.44324 -0.83079 11.77919 -42.31563 19.33756 98.69944 78.61299 -3.3244 1.55625 51.87894 10.24403 -32.74428 91.62475 -89.60606 9.19154 1.24267 52.84867 6.00922 -13.48537 -20.36367 -7.58645 -3.06061 -2.27728 48.89659 5.30059 2.75142 -26.27574 -8.51417 4.76924 3.26853
-0.5825 -0.00886 -0.36816 956.72512 -40.65278 -3.36417 48.09817 -0.37069 -8.78538 -6.41776 -4.41318 -0.83079 14.03044 -40.07479 19.75183 100.85426 80.56274 -1.34156 0.75427 51.36583 9.91219 -32.81231 91.50341 -88.14095 7.43986 1.3586 52.59957 5.64479 -12.84235 -20.47923 -7.54305 -3.08219 -2.28734 48.68806 5.09214 3.39891 -26.53554 -8.47706 4.72452 3.23986
-0.58417 -0.0094 -0.36387 956.65624 -40.69578 -2.95495 48.19946 -0.15624 -8.35845 -5.93393 -4.38145 -0.83079 16.25766 -37.95023 20.45735 102.73568 82.1523 -0.01895 0.17338 50.86684 9.63022 -32.86486 91.40168 -86.95837 5.9941 1.42855 52.298 5.37105 -12.28511 -20.46116 -7.50307 -3.08228 -2.28531 48.49901 4.88667 3.93586 -26.82242 -8.44894 4.68772 3.21703
-0.58582 -0.00998 -0.35946 956.52512 -40.75101 -2.50819 48.33147 0.06771 -7.92381 -5.49647 -4.35284 -0.83079 18.35211 -35.858 20.90591 104.8716 84.2045 2.30726 -0.47883 50.31984 9.36008 -32.83756 91.31971 -85.79236 4.55746 1.55927 51.99031 5.06947 -11.66187 -20.42693 -7.46234 -3.08743 -2.28612 48.17847 4.64731 4.56646 -26.8919 -8.40725 4.65461 3.19531
-0.5875 -0.01048 -0.3553 956.52548 -40.78543 -2.12155 48.39149 0.28353 -7.47294 -4.96933 -4.31793 -0.83079 20.74329 -33.64509 21.76627 106.58027 85.43085 2.79304 -1.09263 49.87065 9.03808 -32.99393 91.18519 -84.43723 2.9422 1.5784 51.72241 4.78145 -11.14305 -20.49698 -7.42121 -3.09247 -2.28689 48.13619 4.48491 5.05194 -27.42377 -8.39003 4.60786 3.16725
-0.58928 -0.01079 -0.35188 956.90909 -40.76914 -1.92357 48.26487 0.47198 -7.01314 -4.16024 -4.26624 -0.83079 23.93193 -31.06871 23.86777 107.07015 84.08323 -2.32029 -1.49914 49.70338 8.59745 -33.65642 90.90424 -82.7377 0.91369 1.29167 51.5552 4.58685 -10.93147 -20.78861 -7.3806 -3.08791 -2.28232 48.87576 4.5036 5.07475 -29.24095 -8.44919 4.54007 3.13189
-0.59108 -0.01102 -0.34872 957.41965 -40.72938 -1.78792 48.06639 0.64842 -6.54152 -3.267 -4.20783 -0.83079 27.40596 -28.3997 26.39897 107.0997 81.9074 -9.26257 -1.85271 49.63297 8.11008 -34.49863 90.5748 -80.86876 -1.25907 0.8885 51.42109 4.41085 -10.83391 -21.17293 -7.33969 -3.08149 -2.27674 49.8903 4.6051 4.94772 -31.51391 -8.53239 4.45741 3.08953
-0.59287 -0.01128 -0.34543 957.85659 -40.69229 -1.6206 47.89775 0.8245 -6.07438 -2.43344 -4.1516 -0.83079 30.74072 -25.83807 28.74634 107.28853 80.21 -15.17839 -2.22848 49.51165 7.64529 -35.24799 90.27699 -79.05167 -3.31672 0.52388 51.25902 4.21951 -10.69958 -21.5095 -7.29875 -3.07465 -2.27093 50.76716 4.68861 4.90276 -33.56765 -8.60045 4.37279 3.04525
-0.5947 -0.01158 -0.34218 958.3628 -40.68864 -1.46433 47.73892 1.02736 -5.60672 -1.50913 -4.09912 -0.83079 34.13088 -22.99017 31.03986 107.70215 78.10904 -21.8917 -2.62753 49.41929 7.16718 -36.04708 89.937 -77.29523 -5.61073 0.21517 51.15423 4.04997 -10.50088 -21.88075 -7.2582 -3.0742 -2.26862 51.70158 4.69029 4.81132 -35.68791 -8.6852 4.32201 3.02073
-0.59643 -0.01178 -0.33891 958.75289 -40.61081 -1.30141 47.54421 1.17055 -5.13845 -0.75439 -4.03726 -0.83079 37.45935 -20.72125 33.53949 107.53523 76.63576 -27.38376 -2.95944 49.28956 6.71181 -36.78425 89.67383 -75.41035 -7.43258 -0.22955 50.93809 3.84283 -10.45938 -22.19746 -7.21698 -3.06008 -2.25882 52.57731 4.88089 4.77106 -37.76017 -8.74192 4.20039 2.95524
-0.5979 -0.01177 -0.33557 958.80584 -40.32238 -1.10068 47.25789 1.15461 -4.67865 -0.48349 -3.95068 -0.83079 40.64974 -20.06857 36.62961 105.84839 77.16813 -29.11658 -3.12018 49.03471 6.29372 -37.30704 89.6367 -72.95318 -7.96076 -1.10039 50.39258 3.51973 -10.87809 -22.34278 -7.17288 -3.0028 -2.22519 53.25575 5.58295 4.97341 -39.73216 -8.70796 3.86125 2.76368
-0.59925 -0.01166 -0.33219 958.73449 -39.96219 -0.89253 46.94 1.0785 -4.21842 -0.38724 -3.85499 -0.83079 43.74804 -20.00533 39.8912 103.59677 78.34393 -29.55116 -3.21244 48.73885 5.90879 -37.76094 89.67829 -70.42089 -7.99741 -2.09086 49.7361 3.16041 -11.44252 -22.42841 -7.1283 -2.93265 -2.1845 53.8593 6.47064 5.2194 -41.61232 -8.64658 3.45593 2.53378
-0.60063 -0.01158 -0.32879 958.71071 -39.64222 -0.69061 46.64333 1.02755 -3.75377 -0.21398 -3.76375 -0.83079 46.82116 -19.67555 42.99374 101.62011 79.17752 -30.54428 -3.33348 48.46038 5.53201 -38.24557 89.68301 -68.10006 -8.22555 -2.97356 49.13861 2.82373 -11.90472 -22.53825 -7.08471 -2.87212 -2.14917 54.47624 7.26637 5.40217 -43.44079 -8.6024 3.09807 2.33128
-0.60214 -0.01157 -0.32555 958.73007 -39.28912 -0.47773 46.31506 0.98436 -3.30632 -0.02695 -3.67092 -0.83079 50.18863 -19.33186 46.45328 99.54864 80.19637 -31.73095 -3.46422 48.18965 5.05066 -38.73861 89.69133 -65.03741 -8.59223 -4.08086 48.50528 2.46193 -12.51986 -22.66268 -7.038 -2.79593 -2.10492 55.19083 8.09599 5.76319 -45.68235 -8.53825 2.66734 2.08697
